<?xml version="1.0" standalone="no"?>
<!DOCTYPE svg PUBLIC "-//W3C//DTD SVG 20010904//EN"
 "http://www.w3.org/TR/2001/REC-SVG-20010904/DTD/svg10.dtd">
<svg version="1.0" xmlns="http://www.w3.org/2000/svg"
 width="229.000000pt" height="229.000000pt" viewBox="0 0 229.000000 229.000000"
 preserveAspectRatio="xMidYMid meet">
<metadata>
Created by potrace 1.14, written by Peter Selinger 2001-2017
</metadata>
<g transform="translate(0.000000,229.000000) scale(0.100000,-0.100000)"
fill="#000000" stroke="none">
<path d="M80 1820 c0 -7 363 -10 1070 -10 707 0 1070 3 1070 10 0 7 -363 10
-1070 10 -707 0 -1070 -3 -1070 -10z"/>
<path d="M1090 1626 c-119 -32 -202 -101 -257 -213 -34 -70 -37 -82 -37 -162
0 -75 4 -94 31 -153 42 -89 100 -150 183 -192 79 -39 160 -52 238 -37 61 12
147 52 147 68 0 6 -23 30 -51 52 -52 41 -52 41 -88 26 -111 -47 -253 24 -301
149 -21 55 -17 143 9 197 39 83 125 140 210 141 65 1 113 -20 169 -72 l45 -41
58 23 c32 13 60 30 62 37 6 19 -106 123 -160 149 -90 42 -174 51 -258 28z"/>
<path d="M250 1565 l0 -65 70 0 c113 0 169 -16 216 -64 27 -27 46 -57 54 -86
17 -64 8 -185 -17 -235 -43 -83 -92 -104 -245 -105 l-108 0 0 230 0 230 -70 0
-70 0 0 -295 0 -295 183 0 c206 0 254 9 333 63 102 68 149 169 147 317 -1 107
-27 180 -89 249 -74 82 -183 121 -341 121 l-63 0 0 -65z"/>
<path d="M80 1560 l0 -60 70 0 70 0 0 60 0 60 -70 0 -70 0 0 -60z"/>
<path d="M1660 1560 l0 -60 70 0 70 0 0 60 0 60 -70 0 -70 0 0 -60z"/>
<path d="M1660 1175 l0 -295 280 0 280 0 0 70 0 70 -203 0 -204 0 -6 128 c-4
70 -7 171 -7 225 l0 97 -70 0 -70 0 0 -295z"/>
<path d="M1347 1075 l-27 -33 49 -41 c27 -23 53 -41 59 -41 12 0 82 82 82 96
0 9 -107 55 -125 53 -6 0 -22 -15 -38 -34z"/>
<path d="M80 724 c0 -37 3 -45 16 -42 41 8 44 88 4 88 -17 0 -20 -7 -20 -46z
m35 15 c5 -14 1 -27 -9 -37 -15 -15 -16 -13 -16 21 0 40 15 50 25 16z"/>
<path d="M172 728 c3 -38 6 -43 28 -45 14 -1 18 0 8 3 -21 6 -24 30 -5 37 10
4 10 6 0 6 -19 1 -15 29 5 34 10 3 6 5 -11 6 -27 1 -28 -1 -25 -41z"/>
<path d="M270 730 c-6 -23 -9 -45 -6 -48 3 -3 6 0 6 6 0 16 27 15 34 0 4 -7 4
5 1 26 -7 59 -22 66 -35 16z m17 -12 c-3 -8 -6 -5 -6 6 -1 11 2 17 5 13 3 -3
4 -12 1 -19z"/>
<path d="M362 728 c-2 -44 0 -48 21 -47 16 1 17 3 5 6 -12 3 -18 17 -21 46
l-4 42 -1 -47z"/>
<path d="M440 725 c0 -40 2 -45 23 -44 12 0 16 3 10 6 -7 2 -13 11 -13 18 0 7
6 16 13 18 10 4 10 6 0 6 -7 1 -13 7 -13 15 0 8 6 17 13 19 6 3 2 6 -10 6 -21
1 -23 -4 -23 -44z"/>
<path d="M531 723 c1 -27 4 -37 6 -24 l5 25 17 -23 c17 -22 17 -22 17 21 -1
37 -4 43 -23 46 -21 3 -23 0 -22 -45z m39 22 c0 -8 -7 -15 -15 -15 -8 0 -15 7
-15 15 0 8 7 15 15 15 8 0 15 -7 15 -15z"/>
<path d="M684 746 c-11 -46 20 -89 41 -56 3 5 0 7 -9 4 -9 -3 -16 2 -18 13 -6
29 3 55 18 49 8 -3 14 -1 14 4 0 22 -40 9 -46 -14z"/>
<path d="M774 746 c-9 -38 4 -68 29 -64 18 2 22 10 22 43 0 34 -4 40 -22 43
-17 3 -24 -3 -29 -22z m41 3 c9 -14 -3 -59 -15 -59 -6 0 -10 16 -10 35 0 34
12 46 25 24z"/>
<path d="M881 725 c1 -48 1 -49 9 -15 5 19 4 41 0 50 -6 10 -9 -1 -9 -35z"/>
<path d="M907 740 c-7 -32 0 -60 14 -60 5 0 9 20 9 45 0 51 -14 60 -23 15z"/>
<path d="M977 762 c6 -4 13 -25 16 -47 l4 -40 1 42 c1 23 8 44 15 46 6 3 -1 6
-18 6 -17 0 -25 -3 -18 -7z"/>
<path d="M1061 723 c1 -27 4 -37 6 -24 l5 25 17 -23 c17 -22 17 -22 17 21 -1
37 -4 43 -23 46 -21 3 -23 0 -22 -45z m39 22 c0 -8 -7 -15 -15 -15 -8 0 -15 7
-15 15 0 8 7 15 15 15 8 0 15 -7 15 -15z"/>
<path d="M1156 745 c-8 -32 10 -67 32 -63 13 2 17 14 17 43 0 33 -4 41 -21 43
-16 2 -23 -4 -28 -23z m39 -20 c0 -16 -6 -30 -12 -32 -9 -3 -13 7 -13 32 0 25
4 35 13 33 6 -3 12 -17 12 -33z"/>
<path d="M1262 728 c-2 -44 0 -48 21 -47 16 1 17 3 5 6 -12 3 -18 17 -21 46
l-4 42 -1 -47z"/>
<path d="M1342 728 c-2 -43 0 -48 20 -48 19 0 20 1 5 13 -9 6 -18 28 -20 47
-3 29 -4 27 -5 -12z"/>
<path d="M1430 725 c0 -40 2 -45 23 -44 16 1 18 2 5 6 -21 5 -24 29 -5 36 10
4 10 6 0 6 -19 1 -15 29 5 34 13 4 11 5 -5 6 -21 1 -23 -4 -23 -44z"/>
<path d="M1510 725 c0 -38 3 -45 20 -45 28 0 46 40 31 69 -7 11 -21 21 -31 21
-17 0 -20 -7 -20 -45z m40 0 c0 -13 -4 -27 -10 -30 -6 -4 -10 8 -10 30 0 22 4
34 10 30 6 -3 10 -17 10 -30z"/>
<path d="M1672 728 c-2 -44 0 -48 21 -47 16 1 17 3 5 6 -12 3 -18 17 -21 46
l-4 42 -1 -47z"/>
<path d="M1750 725 c0 -43 1 -45 28 -44 16 1 20 3 10 6 -21 5 -24 29 -5 36 10
4 10 6 0 6 -7 1 -13 7 -13 15 0 8 6 17 13 19 6 3 2 6 -10 6 -21 1 -23 -4 -23
-44z"/>
<path d="M1857 763 c-3 -4 -8 -26 -11 -48 -3 -22 -3 -34 0 -27 3 6 12 12 19
12 7 0 16 -6 19 -12 3 -7 3 5 0 27 -6 41 -18 63 -27 48z m10 -45 c-3 -8 -6 -5
-6 6 -1 11 2 17 5 13 3 -3 4 -12 1 -19z"/>
<path d="M1935 759 c-4 -6 2 -21 14 -33 25 -26 27 -41 6 -32 -8 3 -15 1 -15
-4 0 -16 30 -11 37 5 3 9 -2 24 -11 34 -20 22 -20 28 2 34 13 4 12 5 -5 6 -12
0 -25 -4 -28 -10z"/>
<path d="M2033 725 c0 -27 2 -38 4 -22 2 15 2 37 0 50 -2 12 -4 0 -4 -28z"/>
<path d="M2092 725 c0 -42 1 -45 8 -20 l7 30 7 -27 c13 -44 26 -33 25 20 -1
42 -2 44 -9 17 -4 -16 -8 -25 -9 -19 0 5 -8 19 -16 30 -13 17 -14 15 -13 -31z"/>
<path d="M2187 749 c-8 -32 9 -69 33 -69 15 0 20 7 20 25 0 17 -5 25 -17 25
-14 0 -15 -2 -4 -9 7 -5 10 -14 7 -20 -12 -19 -26 -2 -26 31 0 23 4 29 15 24
8 -3 15 -1 15 4 0 20 -38 10 -43 -11z"/>
<path d="M80 490 c0 -7 363 -10 1070 -10 707 0 1070 3 1070 10 0 7 -363 10
-1070 10 -707 0 -1070 -3 -1070 -10z"/>
</g>
</svg>
